<?xml version="1.0" encoding="UTF-8"?>
<svg xmlns="http://www.w3.org/2000/svg" xmlns:xlink="http://www.w3.org/1999/xlink" viewBox="0 0 24 24" width="24px" height="24px">
<g id="surface9957351">
<path style=" stroke:none;fill-rule:nonzero;fill:rgb(100%,100%,100%);fill-opacity:1;" d="M 11.707031 15.707031 C 11.511719 15.902344 11.257812 16 11 16 C 10.742188 16 10.488281 15.902344 10.292969 15.707031 L 6.292969 11.707031 C 5.902344 11.316406 5.902344 10.683594 6.292969 10.292969 C 6.683594 9.902344 7.316406 9.902344 7.707031 10.292969 L 11 13.585938 L 19.351562 5.234375 C 17.523438 3.25 14.910156 2 12 2 C 6.476562 2 2 6.476562 2 12 C 2 17.523438 6.476562 22 12 22 C 17.523438 22 22 17.523438 22 12 C 22 10.113281 21.46875 8.359375 20.5625 6.851562 Z M 11.707031 15.707031 "/>
</g>
</svg>
